<svg width="430" height="206" viewBox="0 0 430 206" fill="none" xmlns="http://www.w3.org/2000/svg">
<mask id="path-1-outside-1_2002_628" maskUnits="userSpaceOnUse" x="0" y="54" width="427" height="94" fill="black">
<rect fill="white" y="54" width="427" height="94"/>
<path d="M28.264 144V77.568H4.456V60.288H70.888V77.568H46.952V144H28.264ZM82.951 144V60.288H117.383C139.143 60.288 148.743 72.192 148.743 88.448C148.743 100.864 143.111 110.336 132.103 114.432L151.815 144H129.671L113.415 116.736H101.639V144H82.951ZM101.639 99.456H117.639C126.983 99.456 129.927 94.72 129.927 88.448C129.927 82.176 126.983 77.568 117.639 77.568H101.639V99.456ZM228.778 144V95.232C228.778 72.576 241.706 58.624 265.386 58.624C289.194 58.624 302.25 72.576 302.25 95.232V144H283.69V119.552H246.954V144H228.778ZM246.954 103.168H283.69V95.232C283.69 82.688 277.802 75.904 265.258 75.904C252.842 75.904 246.954 82.688 246.954 95.232V103.168ZM317.451 144V60.288H336.139V144H317.451ZM351.531 144V93.696C351.531 72.192 364.331 58.624 387.243 58.624C410.283 58.624 422.955 72.192 422.955 93.696V144H404.395V93.696C404.395 82.432 398.763 75.904 387.243 75.904C375.723 75.904 370.219 82.432 370.219 93.696V144H351.531Z"/>
</mask>
<path d="M28.264 144V77.568H4.456V60.288H70.888V77.568H46.952V144H28.264ZM82.951 144V60.288H117.383C139.143 60.288 148.743 72.192 148.743 88.448C148.743 100.864 143.111 110.336 132.103 114.432L151.815 144H129.671L113.415 116.736H101.639V144H82.951ZM101.639 99.456H117.639C126.983 99.456 129.927 94.72 129.927 88.448C129.927 82.176 126.983 77.568 117.639 77.568H101.639V99.456ZM228.778 144V95.232C228.778 72.576 241.706 58.624 265.386 58.624C289.194 58.624 302.25 72.576 302.25 95.232V144H283.69V119.552H246.954V144H228.778ZM246.954 103.168H283.69V95.232C283.69 82.688 277.802 75.904 265.258 75.904C252.842 75.904 246.954 82.688 246.954 95.232V103.168ZM317.451 144V60.288H336.139V144H317.451ZM351.531 144V93.696C351.531 72.192 364.331 58.624 387.243 58.624C410.283 58.624 422.955 72.192 422.955 93.696V144H404.395V93.696C404.395 82.432 398.763 75.904 387.243 75.904C375.723 75.904 370.219 82.432 370.219 93.696V144H351.531Z" fill="black"/>
<path d="M28.264 144H24.264V148H28.264V144ZM28.264 77.568H32.264V73.568H28.264V77.568ZM4.456 77.568H0.456V81.568H4.456V77.568ZM4.456 60.288V56.288H0.456V60.288H4.456ZM70.888 60.288H74.888V56.288H70.888V60.288ZM70.888 77.568V81.568H74.888V77.568H70.888ZM46.952 77.568V73.568H42.952V77.568H46.952ZM46.952 144V148H50.952V144H46.952ZM28.264 144H32.264V77.568H28.264H24.264V144H28.264ZM28.264 77.568V73.568H4.456V77.568V81.568H28.264V77.568ZM4.456 77.568H8.456V60.288H4.456H0.456V77.568H4.456ZM4.456 60.288V64.288H70.888V60.288V56.288H4.456V60.288ZM70.888 60.288H66.888V77.568H70.888H74.888V60.288H70.888ZM70.888 77.568V73.568H46.952V77.568V81.568H70.888V77.568ZM46.952 77.568H42.952V144H46.952H50.952V77.568H46.952ZM46.952 144V140H28.264V144V148H46.952V144ZM82.951 144H78.951V148H82.951V144ZM82.951 60.288V56.288H78.951V60.288H82.951ZM132.103 114.432L130.708 110.683L125.971 112.446L128.775 116.651L132.103 114.432ZM151.815 144V148H159.289L155.143 141.781L151.815 144ZM129.671 144L126.235 146.048L127.399 148H129.671V144ZM113.415 116.736L116.851 114.688L115.687 112.736H113.415V116.736ZM101.639 116.736V112.736H97.639V116.736H101.639ZM101.639 144V148H105.639V144H101.639ZM101.639 99.456H97.639V103.456H101.639V99.456ZM101.639 77.568V73.568H97.639V77.568H101.639ZM82.951 144H86.951V60.288H82.951H78.951V144H82.951ZM82.951 60.288V64.288H117.383V60.288V56.288H82.951V60.288ZM117.383 60.288V64.288C127.55 64.288 134.261 67.0579 138.426 71.1315C142.587 75.2014 144.743 81.0982 144.743 88.448H148.743H152.743C152.743 79.5418 150.099 71.3586 144.02 65.4125C137.945 59.47 128.976 56.288 117.383 56.288V60.288ZM148.743 88.448H144.743C144.743 99.5043 139.877 107.271 130.708 110.683L132.103 114.432L133.498 118.181C146.345 113.401 152.743 102.224 152.743 88.448H148.743ZM132.103 114.432L128.775 116.651L148.487 146.219L151.815 144L155.143 141.781L135.431 112.213L132.103 114.432ZM151.815 144V140H129.671V144V148H151.815V144ZM129.671 144L133.107 141.952L116.851 114.688L113.415 116.736L109.979 118.784L126.235 146.048L129.671 144ZM113.415 116.736V112.736H101.639V116.736V120.736H113.415V116.736ZM101.639 116.736H97.639V144H101.639H105.639V116.736H101.639ZM101.639 144V140H82.951V144V148H101.639V144ZM101.639 99.456V103.456H117.639V99.456V95.456H101.639V99.456ZM117.639 99.456V103.456C122.94 103.456 127.238 102.108 130.162 99.0853C133.064 96.0858 133.927 92.1419 133.927 88.448H129.927H125.927C125.927 91.0261 125.318 92.5862 124.412 93.5227C123.528 94.4362 121.682 95.456 117.639 95.456V99.456ZM129.927 88.448H133.927C133.927 84.753 133.063 80.8243 130.139 77.8512C127.206 74.869 122.911 73.568 117.639 73.568V77.568V81.568C121.711 81.568 123.56 82.571 124.435 83.4608C125.319 84.3597 125.927 85.871 125.927 88.448H129.927ZM117.639 77.568V73.568H101.639V77.568V81.568H117.639V77.568ZM101.639 77.568H97.639V99.456H101.639H105.639V77.568H101.639ZM228.778 144H224.778V148H228.778V144ZM302.25 144V148H306.25V144H302.25ZM283.69 144H279.69V148H283.69V144ZM283.69 119.552H287.69V115.552H283.69V119.552ZM246.954 119.552V115.552H242.954V119.552H246.954ZM246.954 144V148H250.954V144H246.954ZM246.954 103.168H242.954V107.168H246.954V103.168ZM283.69 103.168V107.168H287.69V103.168H283.69ZM228.778 144H232.778V95.232H228.778H224.778V144H228.778ZM228.778 95.232H232.778C232.778 84.6509 235.786 76.6139 241.059 71.2313C246.319 65.8626 254.334 62.624 265.386 62.624V58.624V54.624C252.758 54.624 242.469 58.3613 235.345 65.6326C228.234 72.8901 224.778 83.1571 224.778 95.232H228.778ZM265.386 58.624V62.624C276.509 62.624 284.592 65.8667 289.9 71.2423C295.217 76.6274 298.25 84.6615 298.25 95.232H302.25H306.25C306.25 83.1465 302.755 72.8766 295.592 65.6216C288.42 58.3573 278.071 54.624 265.386 54.624V58.624ZM302.25 95.232H298.25V144H302.25H306.25V95.232H302.25ZM302.25 144V140H283.69V144V148H302.25V144ZM283.69 144H287.69V119.552H283.69H279.69V144H283.69ZM283.69 119.552V115.552H246.954V119.552V123.552H283.69V119.552ZM246.954 119.552H242.954V144H246.954H250.954V119.552H246.954ZM246.954 144V140H228.778V144V148H246.954V144ZM246.954 103.168V107.168H283.69V103.168V99.168H246.954V103.168ZM283.69 103.168H287.69V95.232H283.69H279.69V103.168H283.69ZM283.69 95.232H287.69C287.69 88.4038 286.093 82.419 282.105 78.1378C278.068 73.8035 272.23 71.904 265.258 71.904V75.904V79.904C270.83 79.904 274.208 81.3965 276.251 83.5902C278.343 85.837 279.69 89.5162 279.69 95.232H283.69ZM265.258 75.904V71.904C258.338 71.904 252.533 73.8099 248.516 78.1455C244.551 82.4244 242.954 88.4036 242.954 95.232H246.954H250.954C250.954 89.5164 252.301 85.8316 254.384 83.5825C256.415 81.3901 259.762 79.904 265.258 79.904V75.904ZM246.954 95.232H242.954V103.168H246.954H250.954V95.232H246.954ZM317.451 144H313.451V148H317.451V144ZM317.451 60.288V56.288H313.451V60.288H317.451ZM336.139 60.288H340.139V56.288H336.139V60.288ZM336.139 144V148H340.139V144H336.139ZM317.451 144H321.451V60.288H317.451H313.451V144H317.451ZM317.451 60.288V64.288H336.139V60.288V56.288H317.451V60.288ZM336.139 60.288H332.139V144H336.139H340.139V60.288H336.139ZM336.139 144V140H317.451V144V148H336.139V144ZM351.531 144H347.531V148H351.531V144ZM422.955 144V148H426.955V144H422.955ZM404.395 144H400.395V148H404.395V144ZM370.219 144V148H374.219V144H370.219ZM351.531 144H355.531V93.696H351.531H347.531V144H351.531ZM351.531 93.696H355.531C355.531 83.7349 358.481 76.0802 363.627 70.9207C368.769 65.7656 376.578 62.624 387.243 62.624V58.624V54.624C374.996 54.624 364.949 58.2664 357.963 65.2713C350.981 72.2718 347.531 82.1531 347.531 93.696H351.531ZM387.243 58.624V62.624C397.977 62.624 405.782 65.7684 410.903 70.9169C416.031 76.0715 418.955 83.7241 418.955 93.696H422.955H426.955C426.955 82.1639 423.543 72.2805 416.575 65.275C409.6 58.2636 399.549 54.624 387.243 54.624V58.624ZM422.955 93.696H418.955V144H422.955H426.955V93.696H422.955ZM422.955 144V140H404.395V144V148H422.955V144ZM404.395 144H408.395V93.696H404.395H400.395V144H404.395ZM404.395 93.696H408.395C408.395 87.4482 406.833 81.8703 403.058 77.8413C399.241 73.7668 393.754 71.904 387.243 71.904V75.904V79.904C392.252 79.904 395.341 81.3052 397.22 83.3107C399.141 85.3617 400.395 88.6798 400.395 93.696H404.395ZM387.243 75.904V71.904C380.731 71.904 375.265 73.768 371.477 77.8577C367.738 81.8933 366.219 87.47 366.219 93.696H370.219H374.219C374.219 88.6579 375.452 85.3387 377.345 83.2942C379.189 81.304 382.235 79.904 387.243 79.904V75.904ZM370.219 93.696H366.219V144H370.219H374.219V93.696H370.219ZM370.219 144V140H351.531V144V148H370.219V144Z" fill="black" mask="url(#path-1-outside-1_2002_628)"/>
<circle cx="181" cy="103" r="103" fill="#FAFAFA"/>
<g clip-path="url(#clip0_2002_628)">
<path d="M180.991 191C132.475 191 93 151.525 93 102.991C93 54.4569 132.475 15 180.991 15C229.506 15 268.981 54.4754 268.981 102.991C268.981 151.506 229.525 191 180.991 191ZM180.991 56.2167C155.205 56.2167 134.217 77.2048 134.217 102.991C134.217 128.777 155.205 149.765 180.991 149.765C206.777 149.765 227.765 128.777 227.765 102.991C227.783 77.2048 206.795 56.2167 180.991 56.2167Z" fill="#2563EB"/>
<path d="M140.457 170.885C142.094 171.892 143.982 172.396 145.896 172.396C149.547 172.396 152.971 170.457 154.86 167.36L159.14 160.889H203.658L207.687 167.36C209.576 170.457 213.025 172.396 216.651 172.396C218.565 172.396 220.453 171.867 222.115 170.86C227.051 167.838 228.637 161.392 225.615 156.457L225.464 156.381C230.475 152.479 233.673 146.385 233.673 139.561V67.7986C233.673 57.7267 226.648 49.241 217.23 47.0252C217.633 45.9173 217.835 44.7338 217.835 43.5C217.835 37.7086 213.126 33 207.335 33H155.338C149.547 33 144.838 37.7086 144.838 43.5C144.838 44.7338 145.065 45.9173 145.442 47.0252C136.025 49.241 129 57.7267 129 67.7986V139.561C129 146.435 132.223 152.554 137.284 156.457H136.906C133.935 161.392 135.496 167.863 140.457 170.885Z" fill="#FAFAFA"/>
<path d="M208.845 128.054C205.698 128.054 203.13 130.623 203.13 133.77C203.13 136.918 205.698 139.486 208.845 139.486C211.993 139.486 214.561 136.918 214.561 133.77C214.561 130.623 212.018 128.054 208.845 128.054Z" fill="#FAFAFA"/>
<path d="M160.903 133.77C160.903 130.623 158.335 128.054 155.187 128.054C152.04 128.054 149.471 130.623 149.471 133.77C149.471 136.918 152.04 139.486 155.187 139.486C158.36 139.461 160.903 136.918 160.903 133.77Z" fill="#FAFAFA"/>
<path d="M214.133 151.094C219.345 151.094 223.576 146.864 223.576 141.651V65.8095C223.576 60.5973 219.345 56.3671 214.133 56.3671H148.59C143.378 56.3671 139.147 60.5973 139.147 65.8095V141.677C139.147 146.889 143.378 151.119 148.59 151.119H214.133V151.094ZM208.845 143.54C203.457 143.54 199.05 139.159 199.05 133.745C199.05 128.356 203.432 123.95 208.845 123.95C214.234 123.95 218.64 128.331 218.64 133.745C218.64 139.159 214.259 143.54 208.845 143.54ZM144.763 77.493C144.763 72.8599 148.54 69.0829 153.173 69.0829H209.525C214.158 69.0829 217.935 72.8599 217.935 77.493V111.234C217.935 115.867 214.158 119.644 209.525 119.644H153.173C148.54 119.644 144.763 115.867 144.763 111.234V77.493ZM145.417 133.77C145.417 128.382 149.799 123.975 155.212 123.975C160.601 123.975 165.007 128.356 165.007 133.77C165.007 139.159 160.626 143.565 155.212 143.565C149.799 143.54 145.417 139.159 145.417 133.77Z" fill="#D9D9D9"/>
<path d="M153.173 115.59H209.525C211.917 115.59 213.856 113.651 213.856 111.259V77.5181C213.856 75.126 211.917 73.1871 209.525 73.1871H153.173C150.781 73.1871 148.842 75.126 148.842 77.5181V111.259C148.842 113.626 150.806 115.59 153.173 115.59Z" fill="#525252"/>
<path d="M138.014 128.054C138.014 128.054 138.87 143.54 181.424 143.54C223.978 143.54 225.791 128.734 225.791 128.734C225.791 128.734 229.241 145.63 220.05 151.069C210.86 156.507 158.158 154.115 148.842 152.882C139.525 151.648 134.388 147.569 138.014 128.054Z" fill="#BABABA"/>
<path d="M159.417 133.77C159.417 136.112 157.529 138 155.187 138C152.845 138 150.957 136.112 150.957 133.77C150.957 131.428 152.845 129.54 155.187 129.54C157.529 129.54 159.417 131.428 159.417 133.77Z" fill="#525252"/>
<path d="M213.126 133.77C213.126 136.112 211.237 138 208.896 138C206.554 138 204.666 136.112 204.666 133.77C204.666 131.428 206.554 129.54 208.896 129.54C211.237 129.54 213.126 131.428 213.126 133.77Z" fill="#525252"/>
<path d="M147.96 98.5937C147.96 98.5937 157.604 72.7088 157.302 72.3814C157 72.0541 163.95 72.3814 162.741 72.3814C161.532 72.3814 147.96 108.59 147.96 108.59V98.5937Z" fill="#FAFAFA"/>
<path d="M150.982 117.478L167.878 72.2302H176.615L159.417 117.478H150.982Z" fill="#FAFAFA"/>
<path d="M136.831 80.7915C136.831 80.7915 138.644 66.6153 145.417 61.4786C152.191 56.3419 212.522 59.0613 217.935 61.4786C223.349 63.8958 225.187 80.7915 225.187 80.7915C225.187 80.7915 226.824 63.3419 223.551 58.5577C220.277 53.7735 208.317 54.4534 204.691 54.3275C201.065 54.2268 150.881 52.0109 144.788 54.3275C138.669 56.6692 135.371 72.6584 136.831 80.7915Z" fill="#BABABA"/>
<path d="M153.173 119.669H209.525C214.158 119.669 217.935 115.892 217.935 111.259V77.5181C217.935 72.885 214.158 69.108 209.525 69.108H153.173C148.54 69.108 144.763 72.885 144.763 77.5181V111.259C144.763 115.892 148.54 119.669 153.173 119.669ZM148.842 77.4929C148.842 75.1008 150.781 73.162 153.173 73.162H209.525C211.917 73.162 213.856 75.1008 213.856 77.4929V111.234C213.856 113.626 211.917 115.565 209.525 115.565H153.173C150.781 115.565 148.842 113.626 148.842 111.234V77.4929Z" fill="#152532"/>
<path d="M164.982 133.77C164.982 128.381 160.601 123.975 155.187 123.975C149.799 123.975 145.392 128.356 145.392 133.77C145.392 139.158 149.773 143.565 155.187 143.565C160.601 143.54 164.982 139.158 164.982 133.77ZM149.496 133.77C149.496 130.622 152.065 128.054 155.212 128.054C158.36 128.054 160.928 130.622 160.928 133.77C160.928 136.917 158.36 139.486 155.212 139.486C152.065 139.461 149.496 136.917 149.496 133.77Z" fill="#152532"/>
<path d="M208.845 123.975C203.457 123.975 199.05 128.356 199.05 133.77C199.05 139.158 203.432 143.565 208.845 143.565C214.234 143.565 218.64 139.184 218.64 133.77C218.64 128.356 214.259 123.975 208.845 123.975ZM208.845 139.461C205.698 139.461 203.13 136.892 203.13 133.745C203.13 130.597 205.698 128.029 208.845 128.029C211.993 128.029 214.561 130.597 214.561 133.745C214.561 136.917 212.018 139.461 208.845 139.461Z" fill="#152532"/>
<path d="M142.824 167.033C143.151 167.234 143.529 167.335 143.881 167.335C144.561 167.335 145.241 166.982 145.619 166.353L152.795 155.173H210.054L216.953 166.353C217.331 166.982 218.011 167.335 218.691 167.335C219.043 167.335 219.421 167.234 219.748 167.033C220.705 166.454 221.007 165.195 220.428 164.238L214.813 155.148C221.939 154.795 227.63 148.878 227.63 141.677V65.8095C227.63 58.3562 221.561 52.2879 214.108 52.2879H190.817V42.1656H208.845C209.979 42.1656 210.885 41.2591 210.885 40.126C210.885 38.9929 209.979 38.0864 208.845 38.0864H153.853C152.719 38.0864 151.813 38.9929 151.813 40.126C151.813 41.2591 152.719 42.1656 153.853 42.1656H171.252V52.2879H148.59C141.137 52.2879 135.068 58.3562 135.068 65.8095V141.677C135.068 148.953 140.835 154.871 148.036 155.173L142.119 164.263C141.54 165.195 141.842 166.454 142.824 167.033ZM175.331 42.1656H186.737V52.2879H175.331V42.1656ZM139.173 141.651V65.8095C139.173 60.5972 143.403 56.367 148.615 56.367H214.133C219.345 56.367 223.576 60.5972 223.576 65.8095V141.677C223.576 146.889 219.345 151.119 214.133 151.119H148.59C143.403 151.094 139.173 146.864 139.173 141.651Z" fill="#152532"/>
</g>
<mask id="mask0_2002_628" style="mask-type:alpha" maskUnits="userSpaceOnUse" x="78" y="0" width="206" height="206">
<circle cx="181" cy="103" r="103" fill="#FAFAFA"/>
<g clip-path="url(#clip1_2002_628)">
<path d="M180.991 191C132.475 191 93 151.525 93 102.991C93 54.4569 132.475 15 180.991 15C229.506 15 268.981 54.4754 268.981 102.991C268.981 151.506 229.525 191 180.991 191ZM180.991 56.2167C155.205 56.2167 134.217 77.2048 134.217 102.991C134.217 128.777 155.205 149.765 180.991 149.765C206.777 149.765 227.765 128.777 227.765 102.991C227.783 77.2048 206.795 56.2167 180.991 56.2167Z" fill="#2563EB"/>
<path d="M140.457 170.885C142.094 171.892 143.982 172.396 145.896 172.396C149.547 172.396 152.971 170.457 154.86 167.36L159.14 160.889H203.658L207.687 167.36C209.576 170.457 213.025 172.396 216.651 172.396C218.565 172.396 220.453 171.867 222.115 170.86C227.051 167.838 228.637 161.392 225.615 156.457L225.464 156.381C230.475 152.479 233.673 146.385 233.673 139.561V67.7986C233.673 57.7267 226.648 49.241 217.23 47.0252C217.633 45.9173 217.835 44.7338 217.835 43.5C217.835 37.7086 213.126 33 207.335 33H155.338C149.547 33 144.838 37.7086 144.838 43.5C144.838 44.7338 145.065 45.9173 145.442 47.0252C136.025 49.241 129 57.7267 129 67.7986V139.561C129 146.435 132.223 152.554 137.284 156.457H136.906C133.935 161.392 135.496 167.863 140.457 170.885Z" fill="#FAFAFA"/>
<path d="M208.845 128.054C205.698 128.054 203.13 130.623 203.13 133.77C203.13 136.918 205.698 139.486 208.845 139.486C211.993 139.486 214.561 136.918 214.561 133.77C214.561 130.623 212.018 128.054 208.845 128.054Z" fill="#FAFAFA"/>
<path d="M160.903 133.77C160.903 130.623 158.335 128.054 155.187 128.054C152.04 128.054 149.471 130.623 149.471 133.77C149.471 136.918 152.04 139.486 155.187 139.486C158.36 139.461 160.903 136.918 160.903 133.77Z" fill="#FAFAFA"/>
<path d="M214.133 151.094C219.345 151.094 223.576 146.864 223.576 141.651V65.8095C223.576 60.5973 219.345 56.3671 214.133 56.3671H148.59C143.378 56.3671 139.147 60.5973 139.147 65.8095V141.677C139.147 146.889 143.378 151.119 148.59 151.119H214.133V151.094ZM208.845 143.54C203.457 143.54 199.05 139.159 199.05 133.745C199.05 128.356 203.432 123.95 208.845 123.95C214.234 123.95 218.64 128.331 218.64 133.745C218.64 139.159 214.259 143.54 208.845 143.54ZM144.763 77.493C144.763 72.8599 148.54 69.0829 153.173 69.0829H209.525C214.158 69.0829 217.935 72.8599 217.935 77.493V111.234C217.935 115.867 214.158 119.644 209.525 119.644H153.173C148.54 119.644 144.763 115.867 144.763 111.234V77.493ZM145.417 133.77C145.417 128.382 149.799 123.975 155.212 123.975C160.601 123.975 165.007 128.356 165.007 133.77C165.007 139.159 160.626 143.565 155.212 143.565C149.799 143.54 145.417 139.159 145.417 133.77Z" fill="#D9D9D9"/>
<path d="M153.173 115.59H209.525C211.917 115.59 213.856 113.651 213.856 111.259V77.5181C213.856 75.126 211.917 73.1871 209.525 73.1871H153.173C150.781 73.1871 148.842 75.126 148.842 77.5181V111.259C148.842 113.626 150.806 115.59 153.173 115.59Z" fill="#525252"/>
<path d="M138.014 128.054C138.014 128.054 138.87 143.54 181.424 143.54C223.978 143.54 225.791 128.734 225.791 128.734C225.791 128.734 229.241 145.63 220.05 151.069C210.86 156.507 158.158 154.115 148.842 152.882C139.525 151.648 134.388 147.569 138.014 128.054Z" fill="#BABABA"/>
<path d="M159.417 133.77C159.417 136.112 157.529 138 155.187 138C152.845 138 150.957 136.112 150.957 133.77C150.957 131.428 152.845 129.54 155.187 129.54C157.529 129.54 159.417 131.428 159.417 133.77Z" fill="#525252"/>
<path d="M213.126 133.77C213.126 136.112 211.237 138 208.896 138C206.554 138 204.666 136.112 204.666 133.77C204.666 131.428 206.554 129.54 208.896 129.54C211.237 129.54 213.126 131.428 213.126 133.77Z" fill="#525252"/>
<path d="M147.96 98.5937C147.96 98.5937 157.604 72.7088 157.302 72.3814C157 72.0541 163.95 72.3814 162.741 72.3814C161.532 72.3814 147.96 108.59 147.96 108.59V98.5937Z" fill="#FAFAFA"/>
<path d="M150.982 117.478L167.878 72.2302H176.615L159.417 117.478H150.982Z" fill="#FAFAFA"/>
<path d="M136.831 80.7915C136.831 80.7915 138.644 66.6153 145.417 61.4786C152.191 56.3419 212.522 59.0613 217.935 61.4786C223.349 63.8958 225.187 80.7915 225.187 80.7915C225.187 80.7915 226.824 63.3419 223.551 58.5577C220.277 53.7735 208.317 54.4534 204.691 54.3275C201.065 54.2268 150.881 52.0109 144.788 54.3275C138.669 56.6692 135.371 72.6584 136.831 80.7915Z" fill="#BABABA"/>
<path d="M153.173 119.669H209.525C214.158 119.669 217.935 115.892 217.935 111.259V77.5181C217.935 72.885 214.158 69.108 209.525 69.108H153.173C148.54 69.108 144.763 72.885 144.763 77.5181V111.259C144.763 115.892 148.54 119.669 153.173 119.669ZM148.842 77.4929C148.842 75.1008 150.781 73.162 153.173 73.162H209.525C211.917 73.162 213.856 75.1008 213.856 77.4929V111.234C213.856 113.626 211.917 115.565 209.525 115.565H153.173C150.781 115.565 148.842 113.626 148.842 111.234V77.4929Z" fill="#152532"/>
<path d="M164.982 133.77C164.982 128.381 160.601 123.975 155.187 123.975C149.799 123.975 145.392 128.356 145.392 133.77C145.392 139.158 149.773 143.565 155.187 143.565C160.601 143.54 164.982 139.158 164.982 133.77ZM149.496 133.77C149.496 130.622 152.065 128.054 155.212 128.054C158.36 128.054 160.928 130.622 160.928 133.77C160.928 136.917 158.36 139.486 155.212 139.486C152.065 139.461 149.496 136.917 149.496 133.77Z" fill="#152532"/>
<path d="M208.845 123.975C203.457 123.975 199.05 128.356 199.05 133.77C199.05 139.158 203.432 143.565 208.845 143.565C214.234 143.565 218.64 139.184 218.64 133.77C218.64 128.356 214.259 123.975 208.845 123.975ZM208.845 139.461C205.698 139.461 203.13 136.892 203.13 133.745C203.13 130.597 205.698 128.029 208.845 128.029C211.993 128.029 214.561 130.597 214.561 133.745C214.561 136.917 212.018 139.461 208.845 139.461Z" fill="#152532"/>
<path d="M142.824 167.033C143.151 167.234 143.529 167.335 143.881 167.335C144.561 167.335 145.241 166.982 145.619 166.353L152.795 155.173H210.054L216.953 166.353C217.331 166.982 218.011 167.335 218.691 167.335C219.043 167.335 219.421 167.234 219.748 167.033C220.705 166.454 221.007 165.195 220.428 164.238L214.813 155.148C221.939 154.795 227.63 148.878 227.63 141.677V65.8095C227.63 58.3562 221.561 52.2879 214.108 52.2879H190.817V42.1656H208.845C209.979 42.1656 210.885 41.2591 210.885 40.126C210.885 38.9929 209.979 38.0864 208.845 38.0864H153.853C152.719 38.0864 151.813 38.9929 151.813 40.126C151.813 41.2591 152.719 42.1656 153.853 42.1656H171.252V52.2879H148.59C141.137 52.2879 135.068 58.3562 135.068 65.8095V141.677C135.068 148.953 140.835 154.871 148.036 155.173L142.119 164.263C141.54 165.195 141.842 166.454 142.824 167.033ZM175.331 42.1656H186.737V52.2879H175.331V42.1656ZM139.173 141.651V65.8095C139.173 60.5972 143.403 56.367 148.615 56.367H214.133C219.345 56.367 223.576 60.5972 223.576 65.8095V141.677C223.576 146.889 219.345 151.119 214.133 151.119H148.59C143.403 151.094 139.173 146.864 139.173 141.651Z" fill="#152532"/>
</g>
</mask>
<g mask="url(#mask0_2002_628)">
<mask id="path-37-outside-2_2002_628" maskUnits="userSpaceOnUse" x="0" y="54" width="427" height="94" fill="black">
<rect fill="white" y="54" width="427" height="94"/>
<path d="M28.264 144V77.568H4.456V60.288H70.888V77.568H46.952V144H28.264ZM82.951 144V60.288H117.383C139.143 60.288 148.743 72.192 148.743 88.448C148.743 100.864 143.111 110.336 132.103 114.432L151.815 144H129.671L113.415 116.736H101.639V144H82.951ZM101.639 99.456H117.639C126.983 99.456 129.927 94.72 129.927 88.448C129.927 82.176 126.983 77.568 117.639 77.568H101.639V99.456ZM228.778 144V95.232C228.778 72.576 241.706 58.624 265.386 58.624C289.194 58.624 302.25 72.576 302.25 95.232V144H283.69V119.552H246.954V144H228.778ZM246.954 103.168H283.69V95.232C283.69 82.688 277.802 75.904 265.258 75.904C252.842 75.904 246.954 82.688 246.954 95.232V103.168ZM317.451 144V60.288H336.139V144H317.451ZM351.531 144V93.696C351.531 72.192 364.331 58.624 387.243 58.624C410.283 58.624 422.955 72.192 422.955 93.696V144H404.395V93.696C404.395 82.432 398.763 75.904 387.243 75.904C375.723 75.904 370.219 82.432 370.219 93.696V144H351.531Z"/>
</mask>
<path d="M28.264 144H24.264V148H28.264V144ZM28.264 77.568H32.264V73.568H28.264V77.568ZM4.456 77.568H0.456V81.568H4.456V77.568ZM4.456 60.288V56.288H0.456V60.288H4.456ZM70.888 60.288H74.888V56.288H70.888V60.288ZM70.888 77.568V81.568H74.888V77.568H70.888ZM46.952 77.568V73.568H42.952V77.568H46.952ZM46.952 144V148H50.952V144H46.952ZM28.264 144H32.264V77.568H28.264H24.264V144H28.264ZM28.264 77.568V73.568H4.456V77.568V81.568H28.264V77.568ZM4.456 77.568H8.456V60.288H4.456H0.456V77.568H4.456ZM4.456 60.288V64.288H70.888V60.288V56.288H4.456V60.288ZM70.888 60.288H66.888V77.568H70.888H74.888V60.288H70.888ZM70.888 77.568V73.568H46.952V77.568V81.568H70.888V77.568ZM46.952 77.568H42.952V144H46.952H50.952V77.568H46.952ZM46.952 144V140H28.264V144V148H46.952V144ZM82.951 144H78.951V148H82.951V144ZM82.951 60.288V56.288H78.951V60.288H82.951ZM132.103 114.432L130.708 110.683L125.971 112.446L128.775 116.651L132.103 114.432ZM151.815 144V148H159.289L155.143 141.781L151.815 144ZM129.671 144L126.235 146.048L127.399 148H129.671V144ZM113.415 116.736L116.851 114.688L115.687 112.736H113.415V116.736ZM101.639 116.736V112.736H97.639V116.736H101.639ZM101.639 144V148H105.639V144H101.639ZM101.639 99.456H97.639V103.456H101.639V99.456ZM101.639 77.568V73.568H97.639V77.568H101.639ZM82.951 144H86.951V60.288H82.951H78.951V144H82.951ZM82.951 60.288V64.288H117.383V60.288V56.288H82.951V60.288ZM117.383 60.288V64.288C127.55 64.288 134.261 67.0579 138.426 71.1315C142.587 75.2014 144.743 81.0982 144.743 88.448H148.743H152.743C152.743 79.5418 150.099 71.3586 144.02 65.4125C137.945 59.47 128.976 56.288 117.383 56.288V60.288ZM148.743 88.448H144.743C144.743 99.5043 139.877 107.271 130.708 110.683L132.103 114.432L133.498 118.181C146.345 113.401 152.743 102.224 152.743 88.448H148.743ZM132.103 114.432L128.775 116.651L148.487 146.219L151.815 144L155.143 141.781L135.431 112.213L132.103 114.432ZM151.815 144V140H129.671V144V148H151.815V144ZM129.671 144L133.107 141.952L116.851 114.688L113.415 116.736L109.979 118.784L126.235 146.048L129.671 144ZM113.415 116.736V112.736H101.639V116.736V120.736H113.415V116.736ZM101.639 116.736H97.639V144H101.639H105.639V116.736H101.639ZM101.639 144V140H82.951V144V148H101.639V144ZM101.639 99.456V103.456H117.639V99.456V95.456H101.639V99.456ZM117.639 99.456V103.456C122.94 103.456 127.238 102.108 130.162 99.0853C133.064 96.0858 133.927 92.1419 133.927 88.448H129.927H125.927C125.927 91.0261 125.318 92.5862 124.412 93.5227C123.528 94.4362 121.682 95.456 117.639 95.456V99.456ZM129.927 88.448H133.927C133.927 84.753 133.063 80.8243 130.139 77.8512C127.206 74.869 122.911 73.568 117.639 73.568V77.568V81.568C121.711 81.568 123.56 82.571 124.435 83.4608C125.319 84.3597 125.927 85.871 125.927 88.448H129.927ZM117.639 77.568V73.568H101.639V77.568V81.568H117.639V77.568ZM101.639 77.568H97.639V99.456H101.639H105.639V77.568H101.639ZM228.778 144H224.778V148H228.778V144ZM302.25 144V148H306.25V144H302.25ZM283.69 144H279.69V148H283.69V144ZM283.69 119.552H287.69V115.552H283.69V119.552ZM246.954 119.552V115.552H242.954V119.552H246.954ZM246.954 144V148H250.954V144H246.954ZM246.954 103.168H242.954V107.168H246.954V103.168ZM283.69 103.168V107.168H287.69V103.168H283.69ZM228.778 144H232.778V95.232H228.778H224.778V144H228.778ZM228.778 95.232H232.778C232.778 84.6509 235.786 76.6139 241.059 71.2313C246.319 65.8626 254.334 62.624 265.386 62.624V58.624V54.624C252.758 54.624 242.469 58.3613 235.345 65.6326C228.234 72.8901 224.778 83.1571 224.778 95.232H228.778ZM265.386 58.624V62.624C276.509 62.624 284.592 65.8667 289.9 71.2423C295.217 76.6274 298.25 84.6615 298.25 95.232H302.25H306.25C306.25 83.1465 302.755 72.8766 295.592 65.6216C288.42 58.3573 278.071 54.624 265.386 54.624V58.624ZM302.25 95.232H298.25V144H302.25H306.25V95.232H302.25ZM302.25 144V140H283.69V144V148H302.25V144ZM283.69 144H287.69V119.552H283.69H279.69V144H283.69ZM283.69 119.552V115.552H246.954V119.552V123.552H283.69V119.552ZM246.954 119.552H242.954V144H246.954H250.954V119.552H246.954ZM246.954 144V140H228.778V144V148H246.954V144ZM246.954 103.168V107.168H283.69V103.168V99.168H246.954V103.168ZM283.69 103.168H287.69V95.232H283.69H279.69V103.168H283.69ZM283.69 95.232H287.69C287.69 88.4038 286.093 82.419 282.105 78.1378C278.068 73.8035 272.23 71.904 265.258 71.904V75.904V79.904C270.83 79.904 274.208 81.3965 276.251 83.5902C278.343 85.837 279.69 89.5162 279.69 95.232H283.69ZM265.258 75.904V71.904C258.338 71.904 252.533 73.8099 248.516 78.1455C244.551 82.4244 242.954 88.4036 242.954 95.232H246.954H250.954C250.954 89.5164 252.301 85.8316 254.384 83.5825C256.415 81.3901 259.762 79.904 265.258 79.904V75.904ZM246.954 95.232H242.954V103.168H246.954H250.954V95.232H246.954ZM317.451 144H313.451V148H317.451V144ZM317.451 60.288V56.288H313.451V60.288H317.451ZM336.139 60.288H340.139V56.288H336.139V60.288ZM336.139 144V148H340.139V144H336.139ZM317.451 144H321.451V60.288H317.451H313.451V144H317.451ZM317.451 60.288V64.288H336.139V60.288V56.288H317.451V60.288ZM336.139 60.288H332.139V144H336.139H340.139V60.288H336.139ZM336.139 144V140H317.451V144V148H336.139V144ZM351.531 144H347.531V148H351.531V144ZM422.955 144V148H426.955V144H422.955ZM404.395 144H400.395V148H404.395V144ZM370.219 144V148H374.219V144H370.219ZM351.531 144H355.531V93.696H351.531H347.531V144H351.531ZM351.531 93.696H355.531C355.531 83.7349 358.481 76.0802 363.627 70.9207C368.769 65.7656 376.578 62.624 387.243 62.624V58.624V54.624C374.996 54.624 364.949 58.2664 357.963 65.2713C350.981 72.2718 347.531 82.1531 347.531 93.696H351.531ZM387.243 58.624V62.624C397.977 62.624 405.782 65.7684 410.903 70.9169C416.031 76.0715 418.955 83.7241 418.955 93.696H422.955H426.955C426.955 82.1639 423.543 72.2805 416.575 65.275C409.6 58.2636 399.549 54.624 387.243 54.624V58.624ZM422.955 93.696H418.955V144H422.955H426.955V93.696H422.955ZM422.955 144V140H404.395V144V148H422.955V144ZM404.395 144H408.395V93.696H404.395H400.395V144H404.395ZM404.395 93.696H408.395C408.395 87.4482 406.833 81.8703 403.058 77.8413C399.241 73.7668 393.754 71.904 387.243 71.904V75.904V79.904C392.252 79.904 395.341 81.3052 397.22 83.3107C399.141 85.3617 400.395 88.6798 400.395 93.696H404.395ZM387.243 75.904V71.904C380.731 71.904 375.265 73.768 371.477 77.8577C367.738 81.8933 366.219 87.47 366.219 93.696H370.219H374.219C374.219 88.6579 375.452 85.3387 377.345 83.2942C379.189 81.304 382.235 79.904 387.243 79.904V75.904ZM370.219 93.696H366.219V144H370.219H374.219V93.696H370.219ZM370.219 144V140H351.531V144V148H370.219V144Z" fill="white" mask="url(#path-37-outside-2_2002_628)"/>
</g>
<path d="M140.457 170.885C142.094 171.892 143.982 172.396 145.896 172.396C149.547 172.396 152.971 170.457 154.86 167.36L159.14 160.889H203.658L207.687 167.36C209.576 170.457 213.025 172.396 216.651 172.396C218.565 172.396 220.453 171.867 222.115 170.86C227.051 167.838 228.637 161.392 225.615 156.457L225.464 156.381C230.475 152.479 233.673 146.385 233.673 139.561V67.7986C233.673 57.7267 226.648 49.241 217.23 47.0252C217.633 45.9173 217.835 44.7338 217.835 43.5C217.835 37.7086 213.126 33 207.335 33H155.338C149.547 33 144.838 37.7086 144.838 43.5C144.838 44.7338 145.065 45.9173 145.442 47.0252C136.025 49.241 129 57.7267 129 67.7986V139.561C129 146.435 132.223 152.554 137.284 156.457H136.906C133.935 161.392 135.496 167.863 140.457 170.885Z" fill="#FAFAFA"/>
<path d="M208.845 128.054C205.698 128.054 203.13 130.623 203.13 133.77C203.13 136.918 205.698 139.486 208.845 139.486C211.993 139.486 214.561 136.918 214.561 133.77C214.561 130.623 212.018 128.054 208.845 128.054Z" fill="#FAFAFA"/>
<path d="M160.903 133.77C160.903 130.623 158.335 128.054 155.187 128.054C152.04 128.054 149.471 130.623 149.471 133.77C149.471 136.918 152.04 139.486 155.187 139.486C158.36 139.461 160.903 136.918 160.903 133.77Z" fill="#FAFAFA"/>
<path d="M214.133 151.094C219.345 151.094 223.576 146.864 223.576 141.651V65.8095C223.576 60.5973 219.345 56.3671 214.133 56.3671H148.59C143.378 56.3671 139.147 60.5973 139.147 65.8095V141.677C139.147 146.889 143.378 151.119 148.59 151.119H214.133V151.094ZM208.845 143.54C203.457 143.54 199.05 139.159 199.05 133.745C199.05 128.356 203.432 123.95 208.845 123.95C214.234 123.95 218.64 128.331 218.64 133.745C218.64 139.159 214.259 143.54 208.845 143.54ZM144.763 77.493C144.763 72.8599 148.54 69.0829 153.173 69.0829H209.525C214.158 69.0829 217.935 72.8599 217.935 77.493V111.234C217.935 115.867 214.158 119.644 209.525 119.644H153.173C148.54 119.644 144.763 115.867 144.763 111.234V77.493ZM145.417 133.77C145.417 128.382 149.799 123.975 155.212 123.975C160.601 123.975 165.007 128.356 165.007 133.77C165.007 139.159 160.626 143.565 155.212 143.565C149.799 143.54 145.417 139.159 145.417 133.77Z" fill="#D9D9D9"/>
<path d="M153.173 115.59H209.525C211.917 115.59 213.856 113.651 213.856 111.259V77.5181C213.856 75.126 211.917 73.1871 209.525 73.1871H153.173C150.781 73.1871 148.842 75.126 148.842 77.5181V111.259C148.842 113.626 150.806 115.59 153.173 115.59Z" fill="#525252"/>
<path d="M138.014 128.054C138.014 128.054 138.87 143.54 181.424 143.54C223.978 143.54 225.791 128.734 225.791 128.734C225.791 128.734 229.241 145.63 220.05 151.069C210.86 156.507 158.158 154.115 148.842 152.882C139.525 151.648 134.388 147.569 138.014 128.054Z" fill="#BABABA"/>
<path d="M159.417 133.77C159.417 136.112 157.529 138 155.187 138C152.845 138 150.957 136.112 150.957 133.77C150.957 131.428 152.845 129.54 155.187 129.54C157.529 129.54 159.417 131.428 159.417 133.77Z" fill="#525252"/>
<path d="M213.126 133.77C213.126 136.112 211.237 138 208.896 138C206.554 138 204.666 136.112 204.666 133.77C204.666 131.428 206.554 129.54 208.896 129.54C211.237 129.54 213.126 131.428 213.126 133.77Z" fill="#525252"/>
<path d="M147.96 98.5937C147.96 98.5937 157.604 72.7088 157.302 72.3814C157 72.0541 163.95 72.3814 162.741 72.3814C161.532 72.3814 147.96 108.59 147.96 108.59V98.5937Z" fill="#FAFAFA"/>
<path d="M150.982 117.478L167.878 72.2302H176.615L159.417 117.478H150.982Z" fill="#FAFAFA"/>
<path d="M136.831 80.7915C136.831 80.7915 138.644 66.6153 145.417 61.4786C152.191 56.3419 212.522 59.0613 217.935 61.4786C223.349 63.8958 225.187 80.7915 225.187 80.7915C225.187 80.7915 226.824 63.3419 223.551 58.5577C220.277 53.7735 208.317 54.4534 204.691 54.3275C201.065 54.2268 150.881 52.0109 144.788 54.3275C138.669 56.6692 135.371 72.6584 136.831 80.7915Z" fill="#BABABA"/>
<path d="M153.173 119.669H209.525C214.158 119.669 217.935 115.892 217.935 111.259V77.5181C217.935 72.885 214.158 69.108 209.525 69.108H153.173C148.54 69.108 144.763 72.885 144.763 77.5181V111.259C144.763 115.892 148.54 119.669 153.173 119.669ZM148.842 77.4929C148.842 75.1008 150.781 73.162 153.173 73.162H209.525C211.917 73.162 213.856 75.1008 213.856 77.4929V111.234C213.856 113.626 211.917 115.565 209.525 115.565H153.173C150.781 115.565 148.842 113.626 148.842 111.234V77.4929Z" fill="#152532"/>
<path d="M164.982 133.77C164.982 128.381 160.601 123.975 155.187 123.975C149.799 123.975 145.392 128.356 145.392 133.77C145.392 139.158 149.773 143.565 155.187 143.565C160.601 143.54 164.982 139.158 164.982 133.77ZM149.496 133.77C149.496 130.622 152.065 128.054 155.212 128.054C158.36 128.054 160.928 130.622 160.928 133.77C160.928 136.917 158.36 139.486 155.212 139.486C152.065 139.461 149.496 136.917 149.496 133.77Z" fill="#152532"/>
<path d="M208.845 123.975C203.457 123.975 199.05 128.356 199.05 133.77C199.05 139.158 203.432 143.565 208.845 143.565C214.234 143.565 218.64 139.184 218.64 133.77C218.64 128.356 214.259 123.975 208.845 123.975ZM208.845 139.461C205.698 139.461 203.13 136.892 203.13 133.745C203.13 130.597 205.698 128.029 208.845 128.029C211.993 128.029 214.561 130.597 214.561 133.745C214.561 136.917 212.018 139.461 208.845 139.461Z" fill="#152532"/>
<path d="M142.824 167.033C143.151 167.234 143.529 167.335 143.881 167.335C144.561 167.335 145.241 166.982 145.619 166.353L152.795 155.173H210.054L216.953 166.353C217.331 166.982 218.011 167.335 218.691 167.335C219.043 167.335 219.421 167.234 219.748 167.033C220.705 166.454 221.007 165.195 220.428 164.238L214.813 155.148C221.939 154.795 227.63 148.878 227.63 141.677V65.8095C227.63 58.3562 221.561 52.2879 214.108 52.2879H190.817V42.1656H208.845C209.979 42.1656 210.885 41.2591 210.885 40.126C210.885 38.9929 209.979 38.0864 208.845 38.0864H153.853C152.719 38.0864 151.813 38.9929 151.813 40.126C151.813 41.2591 152.719 42.1656 153.853 42.1656H171.252V52.2879H148.59C141.137 52.2879 135.068 58.3562 135.068 65.8095V141.677C135.068 148.953 140.835 154.871 148.036 155.173L142.119 164.263C141.54 165.195 141.842 166.454 142.824 167.033ZM175.331 42.1656H186.737V52.2879H175.331V42.1656ZM139.173 141.651V65.8095C139.173 60.5972 143.403 56.367 148.615 56.367H214.133C219.345 56.367 223.576 60.5972 223.576 65.8095V141.677C223.576 146.889 219.345 151.119 214.133 151.119H148.59C143.403 151.094 139.173 146.864 139.173 141.651Z" fill="#152532"/>
<defs>
<clipPath id="clip0_2002_628">
<rect width="176" height="176" fill="white" transform="translate(93 15)"/>
</clipPath>
<clipPath id="clip1_2002_628">
<rect width="176" height="176" fill="white" transform="translate(93 15)"/>
</clipPath>
</defs>
</svg>
